<?xml version="1.0" encoding="UTF-8" standalone="no"?>
<!-- Created with Inkscape (http://www.inkscape.org/) -->

<svg
   width="56.140999mm"
   height="13.113mm"
   viewBox="0 0 56.140999 13.113"
   version="1.1"
   id="svg5"
   inkscape:version="1.1 (c4e8f9ed74, 2021-05-24)"
   sodipodi:docname="logo.svg"
   xmlns:inkscape="http://www.inkscape.org/namespaces/inkscape"
   xmlns:sodipodi="http://sodipodi.sourceforge.net/DTD/sodipodi-0.dtd"
   xmlns="http://www.w3.org/2000/svg"
   xmlns:svg="http://www.w3.org/2000/svg">
  <sodipodi:namedview
     id="namedview7"
     pagecolor="#505050"
     bordercolor="#ffffff"
     borderopacity="1"
     inkscape:pageshadow="0"
     inkscape:pageopacity="0"
     inkscape:pagecheckerboard="1"
     inkscape:document-units="mm"
     showgrid="false"
     inkscape:zoom="2"
     inkscape:cx="173.5"
     inkscape:cy="7"
     inkscape:window-width="1920"
     inkscape:window-height="1021"
     inkscape:window-x="0"
     inkscape:window-y="0"
     inkscape:window-maximized="1"
     inkscape:current-layer="layer5"
     width="100mm"
     height="13.113mm"
     showguides="false" />
  <defs
     id="defs2" />
  <g
     inkscape:label="Letter C"
     inkscape:groupmode="layer"
     id="layer1"
     style="display:inline">
    <g
       id="g73"
       transform="matrix(0.26458333,0,0,0.26458333,-0.32291665,0.20632453)" />
    <g
       id="g7894">
      <path
         fill="#283593"
         fill-rule="evenodd"
         d="m 22.903,3.286 c 0.679,-0.381 1.515,-0.381 2.193,0 3.355,1.883 13.451,7.551 16.807,9.434 0.679,0.38 1.097,1.084 1.097,1.846 0,3.766 0,15.101 0,18.867 0,0.762 -0.418,1.466 -1.097,1.847 -3.355,1.883 -13.451,7.551 -16.807,9.434 -0.679,0.381 -1.515,0.381 -2.193,0 C 19.548,42.831 9.452,37.163 6.096,35.28 5.418,34.899 5,34.196 5,33.434 5,29.668 5,18.333 5,14.567 5,13.805 5.418,13.101 6.097,12.72 9.451,10.837 19.549,5.169 22.903,3.286 Z"
         clip-rule="evenodd"
         id="path55"
         style="display:inline;fill:#100f0e;fill-opacity:1"
         transform="matrix(0.26458333,0,0,0.26458333,-0.32291666,0.20632453)" />
      <path
         fill="#283593"
         fill-rule="evenodd"
         d="m 5.7368354,1.0757454 c 0.179652,-0.1008063 0.4008437,-0.1008063 0.5802312,0 0.8876771,0.4982104 3.5589104,1.9978687 4.4468524,2.4960791 L 1.2899833,9.5408244 C 1.1105958,9.4400182 1,9.2540161 1,9.0524036 V 4.06051 C 1,3.8588975 1.1105958,3.6726308 1.2902479,3.5718245 2.1776604,3.0736141 4.8494229,1.5739558 5.7368354,1.0757454 Z"
         clip-rule="evenodd"
         id="path55-35"
         style="display:inline;fill:#1c2024;fill-opacity:1;stroke-width:0.264583"
         sodipodi:nodetypes="ccccsscc" />
      <path
         fill="#ffffff"
         fill-rule="evenodd"
         d="m 24,10 c 7.727,0 14,6.273 14,14 0,7.727 -6.273,14 -14,14 -7.727,0 -14,-6.273 -14,-14 0,-7.727 6.273,-14 14,-14 z m 0,7 c 3.863,0 7,3.136 7,7 0,3.863 -3.137,7 -7,7 -3.863,0 -7,-3.137 -7,-7 0,-3.864 3.136,-7 7,-7 z"
         clip-rule="evenodd"
         id="path59"
         style="display:inline"
         transform="matrix(0.26458333,0,0,0.26458333,-0.32291666,0.20632453)" />
      <path
         fill="#283593"
         fill-rule="evenodd"
         d="M 41.903,12.72 C 42.582,13.1 43,13.804 43,14.566 v 18.867 c 0,0.762 -0.418,1.466 -1.097,1.847 L 23.999685,24.0005 Z"
         clip-rule="evenodd"
         id="path55-3"
         style="display:inline;fill:#131618;fill-opacity:1"
         sodipodi:nodetypes="cssccc"
         transform="matrix(0.26458333,0,0,0.26458333,-0.32291666,0.20632453)" />
    </g>
  </g>
  <g
     inkscape:groupmode="layer"
     id="layer5"
     inkscape:label="Layer 3"
     style="display:inline">
    <g
       id="g9705">
      <rect
         style="fill:#131618;fill-opacity:1;stroke-width:0.264583"
         id="rect99507"
         width="43.48"
         height="5.9689999"
         x="10.763919"
         y="3.5718246" />
      <rect
         style="display:inline;fill:#131618;fill-opacity:1;stroke-width:0.264583"
         id="rect99507-9"
         width="1"
         height="5.9689999"
         x="53.743999"
         y="3.5718246"
         ry="0.52970183" />
    </g>
  </g>
  <g
     inkscape:groupmode="layer"
     id="layer3"
     inkscape:label="Layer 2"
     style="display:inline">
    <text
       xml:space="preserve"
       style="font-style:normal;font-variant:normal;font-weight:bold;font-stretch:normal;font-size:5.73264px;line-height:1.25;font-family:'Bitstream Vera Sans';-inkscape-font-specification:'Bitstream Vera Sans Bold';letter-spacing:0.13104px;stroke-width:0.264583"
       x="11.270472"
       y="8.5095291"
       id="text116107"
       transform="scale(0.98553228,1.0146801)"><tspan
         sodipodi:role="line"
         style="font-style:normal;font-variant:normal;font-weight:bold;font-stretch:normal;font-size:5.73264px;font-family:'Bitstream Vera Sans';-inkscape-font-specification:'Bitstream Vera Sans Bold';fill:#ffffff;fill-opacity:1;stroke-width:0.264583"
         x="11.270472"
         y="8.5095291"
         id="tspan122203">ARBONSTEEL</tspan></text>
  </g>
</svg>
